<svg xmlns="http://www.w3.org/2000/svg" viewBox="0 0 24 24" width="24" height="24"><metadata><rdf:RDF xmlns:rdf="http://www.w3.org/1999/02/22-rdf-syntax-ns#" xmlns:dc="http://purl.org/dc/elements/1.1/"><rdf:Description><dc:creator>RealFaviconGenerator</dc:creator><dc:source>https://realfavicongenerator.net</dc:source></rdf:Description></rdf:RDF></metadata><defs><linearGradient id="a" x1="1.5" y1="12" x2="22.5" y2="12" gradientUnits="userSpaceOnUse"><stop offset="0" stop-color="#eb1a41"></stop><stop offset="1" stop-color="#a21d4f"></stop></linearGradient></defs><path d="M22.5 21.31a8.23 8.23 0 0 0-3.14-3.57 13.4 13.4 0 0 0-3.16-1.44c-.07-.02-.14-.04-.22-.07-.95-.28-1.94-.47-2.96-.54-.34-.02-.68-.04-1.03-.04-1.76 0-3.45.33-5.01.92l2.2-4.72 2.81-6.05 2.81 6.05 1.61 3.47c1.54.48 2.98 1.19 4.27 2.11l-2.59-5.58-3.74-8.04c-.93-2.01-3.8-2.01-4.73 0l-3.74 8.04-3.56 7.66-.84 1.81c.08.12.19.21.32.28s.27.1.42.1c1.22 0 2.42-.35 3.42-1.05.51-.36 1.05-.67 1.62-.94.09-.04.19-.09.29-.13s.19-.08.29-.12.2-.08.29-.11c.1-.04.2-.07.3-.11.2-.07.4-.13.61-.19l.34-.09.28-.06c.09-.02.18-.04.27-.05l.36-.06c.55-.08 1.11-.13 1.68-.13s1.13.04 1.68.13l.36.06c.09.02.18.04.27.05l.28.06.34.09c.2.06.41.12.61.19.1.03.2.07.3.11s.2.07.29.11c.1.04.19.08.29.12.09.04.19.08.29.13.51.24.99.52 1.45.83.06.04.11.08.17.12.01 0 .02.02.04.02.94.65 2.06 1.02 3.21 1.02h.17c.31 0 .58-.15.75-.38Z" fill="url(#a)"></path></svg>